<?xml version="1.0" encoding="UTF-8" standalone="no"?>
<svg
   height="16"
   viewBox="0 0 16 16"
   width="16"
   version="1.1"
   id="svg147"
   sodipodi:docname="camera.svg"
   inkscape:version="1.2.2 (732a01da63, 2022-12-09, custom)"
   xmlns:inkscape="http://www.inkscape.org/namespaces/inkscape"
   xmlns:sodipodi="http://sodipodi.sourceforge.net/DTD/sodipodi-0.dtd"
   xmlns="http://www.w3.org/2000/svg"
   xmlns:svg="http://www.w3.org/2000/svg">
  <defs
     id="defs151" />
  <sodipodi:namedview
     id="namedview149"
     pagecolor="#ffffff"
     bordercolor="#666666"
     borderopacity="1.0"
     inkscape:showpageshadow="2"
     inkscape:pageopacity="0.0"
     inkscape:pagecheckerboard="0"
     inkscape:deskcolor="#d1d1d1"
     showgrid="false"
     inkscape:zoom="73.562501"
     inkscape:cx="5.3355989"
     inkscape:cy="8.3126592"
     inkscape:window-width="2498"
     inkscape:window-height="1376"
     inkscape:window-x="2622"
     inkscape:window-y="27"
     inkscape:window-maximized="1"
     inkscape:current-layer="svg147" />
  <path
     d="M 5.1836,4 H 4.1377 V 3 C 3.4404333,3 2.7431667,3 2.0459,3 V 4 H 1 C 0.446,4 0,4.446 0,5 v 8 c 0,0.554 0.446,1 1,1 h 14 c 0.554,0 1,-0.446 1,-1 V 5 C 16,4.446 15.554,4 15,4 13.605467,4 12.210933,4 10.8164,4 L 9.4082,2 C 8.4694,2 7.5306,2 6.5918,2 Z M 2,6 h 3 6 3 v 6 H 2 Z"
     fill="#e0e0e0"
     id="path145"
     sodipodi:nodetypes="cccccssssssscccccccccccc" />
  <path
     id="path459"
     style="fill:#e0e0e0;fill-opacity:1;stroke:none;stroke-width:2.99999;stroke-linecap:round;stroke-linejoin:bevel;stroke-dasharray:none;stroke-opacity:1;paint-order:fill markers stroke"
     d="M 8,6.3626798 C 6.5432809,6.3622757 5.3622757,7.5432809 5.3626798,9 5.3622758,10.456719 6.543281,11.637724 8,11.63732 9.4567189,11.637724 10.637724,10.456719 10.63732,9 10.637724,7.543281 9.456719,6.3622758 8,6.3626798 Z M 8,7.5139532 C 8.8304701,7.5142801 9.5036175,8.1874275 9.5039444,9.0178976 9.5036178,9.8483679 8.8304703,10.521516 8,10.521843 7.1695297,10.521516 6.4963822,9.8483679 6.4960556,9.0178976 6.4963825,8.1874275 7.1695299,7.5142801 8,7.5139532 Z"
     sodipodi:nodetypes="cccccccccc" />
</svg>
